# xmcd CD database file generated by freedbAccess_ocx
#
# Track frame offsets:
#       150
#       19732
#       36875
#       50877
#       65482
#       80297
#       96592
#       113925
#       132555
#       149577
#       171137
#       183085
#       194805
#       207362
#       223857
#       234562
#       249175
#       258780
#       270850
#       283912
#       299212
#
# Disc length: 4169 seconds
#
# Revision: 0
# Processed by: cddbd v1.4PL0 Copyright (c) Steve Scherf et al.
# Submitted via: CDnGo 2.00
#
DISCID=54104715
DTITLE=Ladislav Vodicka - Odjezd v 15:30
DYEAR=1996
DGENRE=Country
TTITLE0=Line jako snek
TTITLE1=Louka plna koni
TTITLE2=Rybar
TTITLE3=Krizem krazem
TTITLE4=Zlatokopecka ze Zatecka
TTITLE5=Lany sluncem rozpalene
TTITLE6=Zeme bez mori
TTITLE7=Kapka vina
TTITLE8=Krasny kout
TTITLE9=Sto pisni
TTITLE10=Vsude vedou koleje
TTITLE11=Stribrny koleje
TTITLE12=Rychlik do Kolina
TTITLE13=Pulnocni vlak
TTITLE14=Jaky bude pocasi
TTITLE15=Nevim sam, proc me more nelaka
TTITLE16=Mesta chat
TTITLE17=Co bych si pral
TTITLE18=Mam sve duvody
TTITLE19=Znak toulavych
TTITLE20=Ja tu zemi znam
EXTD=
EXTT0=
EXTT1=
EXTT2=
EXTT3=
EXTT4=
EXTT5=
EXTT6=
EXTT7=
EXTT8=
EXTT9=
EXTT10=
EXTT11=
EXTT12=
EXTT13=
EXTT14=
EXTT15=
EXTT16=
EXTT17=
EXTT18=
EXTT19=
EXTT20=
PLAYORDER=
